<svg clip-rule="evenodd" viewBox="8.8300032 4.9579968 30.336 38.304" xmlns="http://www.w3.org/2000/svg" style="max-height: 500px" width="30.336" height="38.304"><linearGradient gradientUnits="userSpaceOnUse" gradientTransform="translate(215.243 161.751)" y2="-122.795" y1="-150.795" x2="-180.197" x1="-208.197" id="00wCqH7f0ElurH3hbcIXXa"><stop stop-color="#a235d4" offset="0"/><stop stop-color="#831bb3" offset="1"/></linearGradient><path d="M39.004,13.999v27c0,1.105-0.895,2-2,2h-26&#9;c-1.105,0-2-0.895-2-2v-34c0-1.104,0.895-2,2-2h19.002l1.997,7L39.004,13.999z" fill="url(#00wCqH7f0ElurH3hbcIXXa)"/><path clip-rule="evenodd" d="M30.002,11.999l0.003-7&#9;l8.999,8.999l-7.001,0.001L30.002,11.999z" fill-rule="evenodd" fill="#ce97e6"/><path clip-rule="evenodd" d="M21.001,21.999v2.001&#9;h10.001v-2.001H21.001z" fill-rule="evenodd" fill="#fff"/><path clip-rule="evenodd" d="M18.002,21.558&#9;c0.795,0,1.44,0.647,1.44,1.441c0,0.795-0.645,1.441-1.44,1.441c-0.795,0-1.44-0.647-1.44-1.441&#9;C16.562,22.205,17.207,21.558,18.002,21.558z" fill-rule="evenodd" fill="#fff"/><path clip-rule="evenodd" d="M21.001,26.999v2.001&#9;h10.001v-2.001H21.001z" fill-rule="evenodd" fill="#fff"/><path clip-rule="evenodd" d="M18.002,26.558&#9;c0.795,0,1.44,0.647,1.44,1.441c0,0.795-0.645,1.441-1.44,1.441c-0.795,0-1.44-0.647-1.44-1.441&#9;C16.562,27.205,17.207,26.558,18.002,26.558z" fill-rule="evenodd" fill="#fff"/><path clip-rule="evenodd" d="M21.001,31.999v2.001&#9;h10.001v-2.001H21.001z" fill-rule="evenodd" fill="#fff"/><path clip-rule="evenodd" d="M18.002,31.558&#9;c0.795,0,1.44,0.647,1.44,1.441c0,0.795-0.645,1.441-1.44,1.441c-0.795,0-1.44-0.647-1.44-1.441&#9;C16.562,32.205,17.207,31.558,18.002,31.558z" fill-rule="evenodd" fill="#fff"/><path clip-rule="evenodd" d="M32.002,9.998&#9;c1.104,0,2.001,0.897,2.001,2.001s-0.897,2.001-2.001,2.001s-2.001-0.897-2.001-2.001S30.898,9.998,32.002,9.998z" fill-rule="evenodd" fill="#ce97e6"/></svg>